<?xml version="1.0" encoding="UTF-8"?><svg id="Layer_1" xmlns="http://www.w3.org/2000/svg" viewBox="0 0 417.929 85.908"><g id="X9C1Y7"><path d="M0,19.187c0-5.808,0-11.617,0-17.425,20.576,0,41.152,0,61.727,0,0,5.401,0,10.801,0,16.202,0,.038-.004.076,0,.112.012.092-.024.143-.11.184-.207.1-.41.208-.61.322-2.745,1.552-4.878,3.709-6.364,6.493-1.519,2.846-2.105,5.885-1.812,9.092.173,1.899.676,3.712,1.514,5.427,1.595,3.265,4.016,5.723,7.246,7.384.107.055.139.115.139.232-.003,5.368-.003,10.737-.003,16.105v.175c-20.592,0-41.16,0-61.727,0,0-5.819,0-11.638,0-17.457,4.554,0,9.107.004,13.661-.002,2.144-.003,4.183-.481,6.096-1.452,2.771-1.407,4.847-3.509,6.179-6.322,1.172-2.476,1.529-5.081,1.089-7.781-.493-3.027-1.884-5.593-4.139-7.665-2.605-2.393-5.703-3.602-9.24-3.618-4.548-.021-9.097-.005-13.645-.005Z"/></g><path d="M71.3,63.604V1.654h21.981c3.845,0,7.26.413,10.244,1.24,2.971.823,5.458,1.953,7.475,3.385,2.003,1.432,3.536,3.153,4.584,5.163,1.035,2.013,1.56,4.171,1.56,6.483,0,3.583-1.022,6.473-3.092,8.675s-5.136,3.304-9.209,3.304v2.726c5.068,0,8.86,1.186,11.401,3.553,2.527,2.366,3.791,5.781,3.791,10.241,0,2.534-.524,4.847-1.56,6.941-1.049,2.091-2.581,3.895-4.584,5.408-2.017,1.516-4.504,2.699-7.475,3.553-2.985.854-6.399,1.281-10.244,1.281h-24.872ZM93.281,26.683c3.912,0,6.897-.622,8.954-1.859,2.07-1.24,3.106-3.099,3.106-5.576s-1.035-4.339-3.106-5.576c-2.057-1.24-5.042-1.859-8.954-1.859h-10.742v14.869h10.742ZM96.171,53.363c3.912,0,6.897-.716,8.954-2.148,2.07-1.432,3.106-3.472,3.106-6.114,0-2.975-1.035-5.092-3.106-6.359-2.057-1.267-5.042-1.902-8.954-1.902h-13.632v16.523h13.632Z"/><path d="M120.855,0h10.325v63.604h-10.325V0Z"/><path d="M147.044,10.822v10.325h-10.325v-10.325h10.325ZM136.719,25.608h10.325v37.996h-10.325V25.608Z"/><path d="M150.405,34.447v-8.839h7.677V8.261h10.567v7.27c0,2.312-.255,4.104-.78,5.368-.524,1.267-1.506,2.285-2.931,3.059l.739,2.558c.995-.383,2.03-.632,3.106-.743,1.062-.108,2.232-.165,3.509-.165h6.44v8.839h-10.083v16.19c0,1.761.215,2.89.618,3.385.417.497,1.344.743,2.769.743h3.388v8.839h-3.388c-2.366,0-4.41-.151-6.144-.454s-3.186-.881-4.342-1.734-2.03-2.023-2.608-3.512c-.578-1.486-.86-3.385-.86-5.697v-17.76h-7.677Z"/><path d="M180.963,25.608h39.821v9.085l-14.291,12.059c-.995.827-1.963,1.586-2.89,2.272-.941.689-1.896,1.351-2.89,1.983-.995.635-2.084,1.24-3.267,1.818s-2.568,1.17-4.168,1.775l.659,2.645c1.492-.605,2.864-1.062,4.127-1.365s2.527-.521,3.764-.659,2.487-.222,3.751-.249c1.277-.027,2.675-.04,4.221-.04h10.984v8.671h-39.821v-9.169l14.291-11.975c.995-.827,1.936-1.583,2.81-2.272.887-.689,1.815-1.351,2.81-1.983s2.097-1.24,3.307-1.818,2.635-1.17,4.289-1.775l-.659-2.645c-1.654.551-3.106.992-4.369,1.324-1.277.329-2.514.565-3.724.702s-2.42.218-3.63.245c-1.21.03-2.595.044-4.127.044h-10.997v-8.675Z"/><path d="M224.495,85.908V25.608h10.648c0,.992-.161,1.996-.484,3.015-.336,1.018-.78,2.161-1.331,3.428l2.568.662c1.21-2.645,3.079-4.628,5.606-5.949,2.541-1.321,5.485-1.983,8.846-1.983,2.259,0,4.41.373,6.44,1.116,2.044.743,3.832,1.929,5.364,3.553,1.546,1.623,2.783,3.69,3.724,6.194.941,2.507,1.398,5.492,1.398,8.964s-.457,6.457-1.398,8.96c-.941,2.507-2.178,4.571-3.724,6.194-1.533,1.627-3.321,2.81-5.364,3.553-2.03.743-4.181,1.116-6.44,1.116-3.361,0-6.305-.662-8.846-1.983-2.527-1.321-4.396-3.304-5.606-5.949l-2.568.662c.551,1.267.995,2.615,1.331,4.047.323,1.435.484,3.223.484,5.371v19.329h-10.648ZM235.143,51.38c.672.881,1.909,1.815,3.724,2.806s4.154,1.489,7.018,1.489c1.546,0,2.971-.195,4.302-.578,1.318-.387,2.447-1.018,3.374-1.902.941-.877,1.681-2.023,2.232-3.425.551-1.405.834-3.126.834-5.163s-.282-3.761-.834-5.163c-.551-1.405-1.291-2.548-2.232-3.428-.928-.881-2.057-1.516-3.374-1.902-1.331-.383-2.756-.578-4.302-.578-2.864,0-5.203.497-7.018,1.489s-3.052,1.926-3.724,2.806v13.548Z"/><path d="M269.842,52.123c0-2.148.444-3.966,1.318-5.452.887-1.486,2.097-2.699,3.643-3.633,1.533-.938,3.361-1.613,5.445-2.027,2.097-.41,4.329-.618,6.695-.618h13.552v-.413c0-2.201-.739-3.976-2.191-5.327-1.465-1.348-3.737-2.023-6.816-2.023s-5.284.413-6.614,1.24c-1.318.823-2.111,1.953-2.393,3.385h-10.648c.215-3.633,1.936-6.621,5.163-8.96,3.213-2.339,7.932-3.512,14.157-3.512,2.917,0,5.606.36,8.053,1.076s4.558,1.748,6.319,3.096c1.761,1.351,3.146,2.975,4.127,4.873.995,1.902,1.492,4.037,1.492,6.403v23.376h-10.648c0-.992.161-1.996.484-3.015.336-1.018.78-2.161,1.331-3.428l-2.568-.662c-1.21,2.645-3.065,4.628-5.579,5.949-2.501,1.321-5.405,1.983-8.712,1.983-1.923,0-3.818-.249-5.7-.743-1.869-.497-3.536-1.24-4.988-2.232-1.465-.992-2.648-2.259-3.563-3.798-.901-1.543-1.358-3.388-1.358-5.536ZM289.753,47.414c-3.038,0-5.324.302-6.897.907-1.573.608-2.353,1.738-2.353,3.388,0,1.596.793,2.712,2.393,3.344,1.6.635,3.495.951,5.7.951,4.181,0,7.233-.592,9.169-1.775,1.923-1.186,2.89-2.521,2.89-4.006v-2.81h-10.903Z"/><path d="M316.561,25.608h10.661c0,.992-.161,1.996-.497,3.015s-.766,2.161-1.318,3.428l2.554.662c1.21-2.645,3.011-4.628,5.418-5.949,2.393-1.321,4.88-1.983,7.475-1.983,1.976,0,3.926.387,5.862,1.156,1.923.773,3.643,1.983,5.163,3.637,1.506,1.65,2.729,3.785,3.63,6.399.914,2.618,1.371,5.771,1.371,9.458v18.173h-10.661v-18.173c0-2.255-.255-4.141-.78-5.657s-1.25-2.739-2.151-3.677c-.914-.934-1.963-1.596-3.146-1.983-1.183-.383-2.433-.578-3.751-.578-2.097,0-3.979.497-5.66,1.489s-2.85,1.926-3.509,2.806v25.772h-10.661V25.608Z"/><path d="M360.348,44.607c0-6.167,1.842-11.014,5.539-14.54,3.684-3.522,8.967-5.287,15.851-5.287s12.18,1.765,15.864,5.287c3.684,3.526,5.539,8.372,5.539,14.54v3.055h-31.97c.82,5.616,4.342,8.426,10.567,8.426,3.253,0,5.687-.44,7.314-1.324,1.627-.881,2.581-1.953,2.85-3.22h10.742c-.336,1.818-.981,3.509-1.949,5.079-.955,1.57-2.285,2.934-3.953,4.09-1.681,1.156-3.751,2.064-6.198,2.726-2.46.659-5.391.992-8.806.992-6.883,0-12.167-1.761-15.851-5.287-3.697-3.522-5.539-8.369-5.539-14.536ZM381.738,33.123c-6.104,0-9.572,2.699-10.406,8.097h20.906c-.887-5.398-4.383-8.097-10.5-8.097Z"/><path d="M407.604,0h10.325v63.604h-10.325V0Z"/></svg>