<?xml version="1.0" encoding="UTF-8"?><svg id="Layer_1" xmlns="http://www.w3.org/2000/svg" viewBox="0 0 122.854 122.848"><defs><style>.cls-1{fill:none;stroke:#fefaf6;stroke-miterlimit:10;stroke-width:.25px;}</style></defs><g id="X9C1Y7"><path class="cls-1" d="M.125,34.734c0-11.536,0-23.072,0-34.608,40.866,0,81.732,0,122.598,0,0,10.726,0,21.452,0,32.178,0,.074-.008.15.002.223.024.183-.047.283-.218.366-.411.198-.815.414-1.212.639-5.452,3.083-9.689,7.366-12.64,12.895-3.018,5.653-4.181,11.688-3.6,18.058.344,3.771,1.343,7.372,3.007,10.778,3.168,6.484,7.976,11.367,14.391,14.666.213.11.276.228.276.46-.006,10.662-.005,21.324-.005,31.987v.348c-40.898,0-81.748,0-122.598,0,0-11.557,0-23.115,0-34.672,9.044,0,18.088.008,27.133-.004,4.259-.005,8.309-.955,12.106-2.884,5.503-2.795,9.628-6.97,12.272-12.557,2.328-4.917,3.036-10.091,2.162-15.453-.98-6.012-3.742-11.109-8.221-15.223-5.175-4.753-11.327-7.154-18.352-7.186-9.033-.042-18.067-.01-27.101-.01Z"/></g></svg>