<?xml version="1.0" encoding="UTF-8"?><svg id="Layer_1" xmlns="http://www.w3.org/2000/svg" viewBox="0 0 14.167 14.17"><defs><style>.cls-1{fill:#dddad7;}</style></defs><path class="cls-1" d="M13.81,3.067c-.113-.279-.43-.414-.709-.301-.061.025-.117.06-.165.105l-2.745,2.533-1.173-.252-.252-1.173,2.533-2.745c.204-.221.19-.566-.031-.77-.048-.045-.104-.08-.165-.105-2.511-1.016-5.369.196-6.385,2.707-.236.585-.358,1.209-.358,1.84,0,.678.138,1.349.409,1.971L.668,10.422c-.01.008-.02.018-.029.027-.851.851-.851,2.231,0,3.082s2.231.851,3.082,0c.009-.009.018-.019.027-.029l3.545-4.102c2.48,1.089,5.372-.039,6.461-2.519.273-.623.414-1.296.414-1.976.001-.63-.12-1.255-.357-1.839ZM9.263,8.72c-.645,0-1.279-.165-1.844-.477-.225-.125-.507-.074-.676.121l-3.807,4.409c-.436.415-1.126.397-1.541-.039-.4-.421-.4-1.08,0-1.501l4.406-3.806c.195-.169.245-.451.121-.676-1.019-1.843-.351-4.164,1.492-5.183.756-.418,1.631-.567,2.482-.423l-2.125,2.303c-.12.13-.169.31-.132.484l.385,1.793c.045.209.209.373.418.418l1.795.385c.173.037.353-.012.484-.132l2.303-2.125c.349,2.08-1.054,4.048-3.133,4.397-.208.035-.418.052-.628.053Z"/></svg>