<?xml version="1.0" encoding="UTF-8"?><svg id="Layer_1" xmlns="http://www.w3.org/2000/svg" viewBox="0 0 13.076 13.076"><defs><style>.cls-1{fill:#dddad7;}</style></defs><path class="cls-1" d="M12.917,3.973h0L9.103.159C9.001.057,8.862,0,8.717,0H.545C.244,0,0,.244,0,.545v8.173c0,.143.056.28.157.382l3.814,3.814h0c.102.104.242.163.388.163h8.173c.301,0,.545-.244.545-.545V4.359c0-.145-.057-.283-.159-.385ZM9.262,1.86l1.954,1.954h-1.954v-1.954ZM3.814,11.216l-1.954-1.954h1.954v1.954ZM3.814,8.173H1.09V1.86l2.724,2.724v3.588ZM1.86,1.09h6.313v2.724h-3.588L1.86,1.09ZM8.173,4.904v3.269h-3.269v-3.269h3.269ZM4.904,11.986v-2.724h3.588l2.724,2.724h-6.313ZM11.986,11.216l-2.724-2.724v-3.588h2.724v6.313Z"/></svg>