<?xml version="1.0" encoding="UTF-8"?><svg id="Layer_1" xmlns="http://www.w3.org/2000/svg" viewBox="0 0 14.711 14.711"><defs><style>.cls-1{fill:#dddad7;}</style></defs><path class="cls-1" d="M14.391,7.083L7.628.319C7.424.114,7.147,0,6.857,0H.545C.244,0,0,.244,0,.545v6.313c0,.289.114.567.319.77l6.764,6.764c.425.426,1.115.426,1.541,0h0s5.767-5.767,5.767-5.767c.426-.425.426-1.115,0-1.541h0ZM7.853,13.621L1.09,6.857V1.09h5.768l6.764,6.764-5.768,5.768ZM4.359,3.541c0,.451-.366.817-.817.817s-.817-.366-.817-.817.366-.817.817-.817.817.366.817.817Z"/></svg>