<?xml version="1.0" encoding="UTF-8"?><svg id="Layer_1" xmlns="http://www.w3.org/2000/svg" viewBox="0 0 14.166 15.252"><defs><style>.cls-1{fill:#dddad7;}</style></defs><path class="cls-1" d="M13.599,3.414L7.606.135c-.326-.18-.721-.18-1.046,0L.567,3.416C.218,3.606,0,3.972,0,4.369v6.514c0,.397.218.763.567.953l5.993,3.281c.326.18.721.18,1.046,0l5.993-3.281c.349-.191.566-.556.567-.953v-6.513c0-.398-.217-.764-.567-.956ZM7.083,1.088l5.472,2.997-2.027,1.11-5.472-2.997,2.028-1.11ZM7.083,7.082L1.611,4.085l2.309-1.264,5.472,2.997-2.309,1.264ZM1.09,5.038l5.448,2.982v5.843l-5.448-2.98v-5.845ZM13.076,10.88h0l-5.448,2.982v-5.84l2.179-1.193v2.431c0,.301.244.545.545.545s.545-.244.545-.545v-3.027l2.179-1.195v5.841h0Z"/></svg>