<?xml version="1.0" encoding="UTF-8"?><svg id="Layer_1" xmlns="http://www.w3.org/2000/svg" viewBox="0 0 13.076 13.076"><defs><style>.cls-1{fill:#dddad7;}</style></defs><path class="cls-1" d="M11.986,0H1.09C.488,0,0,.488,0,1.09v10.897c0,.602.488,1.09,1.09,1.09h10.897c.602,0,1.09-.488,1.09-1.09V1.09c0-.602-.488-1.09-1.09-1.09ZM3.814,8.717c.301,0,.545.244.545.545s-.244.545-.545.545-.545-.244-.545-.545.244-.545.545-.545ZM1.09,1.09h2.179v6.632c-.851.301-1.297,1.235-.996,2.086.301.851,1.235,1.297,2.086.996s1.297-1.235.996-2.086c-.165-.465-.531-.832-.996-.996v-2.048l3.269,3.269v3.044H1.09V1.09ZM11.986,11.986h-3.269v-3.269c0-.145-.057-.283-.159-.385l-4.199-4.199V1.09h2.179v1.635c0,.145.057.283.159.385l1.09,1.09c-.106.22-.16.46-.159.704,0,.903.732,1.635,1.635,1.635s1.635-.732,1.635-1.635-.732-1.635-1.635-1.635c-.244,0-.485.054-.704.16l-.93-.93v-1.409h4.359v10.897ZM9.262,4.359c.301,0,.545.244.545.545s-.244.545-.545.545-.545-.244-.545-.545.244-.545.545-.545Z"/></svg>